# xmcd
#
# Track frame offsets:
#	150
#	14171
#	29286
#	49137
#	73081
#	99076
#	118481
#	148846
#	193476
#	214011
#	249699
#
# Disc length: 3651 seconds
#
# Revision: 1
# Processed by: cddbd v1.5.2PL0 Copyright (c) Steve Scherf et al.
# Submitted via: audiograbber 1.83.01
#
DISCID=b00e410b
DTITLE=Big Papa $ the TCB - Buckshot Love - Live
DYEAR=2010
DGENRE=Blues
TTITLE0=Who's Yo Daddy
TTITLE1=All I Need
TTITLE2=Another Ride
TTITLE3=Money
TTITLE4=Another Man's Wife
TTITLE5=The Fool You Left Behind
TTITLE6=Black Cat Bone
TTITLE7=Dirty Bird Blues
TTITLE8=Hey There Charile
TTITLE9=Got My Mojo Workin'
TTITLE10=Caldonia
EXTD=
EXTT0=
EXTT1=
EXTT2=
EXTT3=
EXTT4=
EXTT5=
EXTT6=
EXTT7=
EXTT8=
EXTT9=
EXTT10=
PLAYORDER=
